PathFileType	4	(X/Y/Z)	C:/Users/opensim2020/Desktop/walking_exp_matlab/subject03_walking14_straight_02.trc																																																																																																																																											
DataRate	CameraRate	NumFrames	NumMarkers	Units	OrigDataRate	OrigDataStartFrame	OrigNumFrames																																																																																																																																							
100	100	4	47	mm	100	1149	168																																																																																																																																							
Frame#	Time	LFHD			RFHD			LBHD			RBHD			C7			T10			CLAV			STRN			RBAK			LSHO			LUPA			LELB			LFRM			LWRA			LWRB			LFIN			RSHO			RUPA			RELB			RFRM			RWRA			RWRB			RFIN			LASI			RASI			LPSI			RPSI			LTHI			LKNE			LTIB			LANK			LHEE			LTOE			RTHI			RKNE			RTIB			RANK			RHEE			RTOE			*39			*40			*41			*42			*43			*44			*45			*46		
		X1	Y1	Z1	X2	Y2	Z2	X3	Y3	Z3	X4	Y4	Z4	X5	Y5	Z5	X6	Y6	Z6	X7	Y7	Z7	X8	Y8	Z8	X9	Y9	Z9	X10	Y10	Z10	X11	Y11	Z11	X12	Y12	Z12	X13	Y13	Z13	X14	Y14	Z14	X15	Y15	Z15	X16	Y16	Z16	X17	Y17	Z17	X18	Y18	Z18	X19	Y19	Z19	X20	Y20	Z20	X21	Y21	Z21	X22	Y22	Z22	X23	Y23	Z23	X24	Y24	Z24	X25	Y25	Z25	X26	Y26	Z26	X27	Y27	Z27	X28	Y28	Z28	X29	Y29	Z29	X30	Y30	Z30	X31	Y31	Z31	X32	Y32	Z32	X33	Y33	Z33	X34	Y34	Z34	X35	Y35	Z35	X36	Y36	Z36	X37	Y37	Z37	X38	Y38	Z38	X39	Y39	Z39	X40	Y40	Z40	X41	Y41	Z41	X42	Y42	Z42	X43	Y43	Z43	X44	Y44	Z44	X45	Y45	Z45	X46	Y46	Z46	X47	Y47	Z47
																																																																																																																																														
106	1.05	201.03221	1605.23242	917.33447	191.90378	1608.73889	1050.22974	81.53083	1542.40112	914.62238	77.39497	1545.8158	1045.15747	66.49939	1386.5979	971.12006	44.28892	1075.31067	965.75964	194.71156	1319.33215	976.6405	247.24147	1157.29431	967.91437	19.89264	1208.29346	1055.46887	152.14598	1357.97888	819.83344	179.20355	1171.32922	737.62909	220.83484	1059.09619	722.56012	318.44101	982.46014	740.66577	407.42929	919.17401	792.14044	394.034	897.68384	742.70068	466.9118	865.84015	761.20978	138.20586	1335.86829	1134.97827	95.68547	1113.93896	1192.71704	82.17766	999.91327	1195.6217	50.50233	865.95746	1191.83691	42.38173	766.10883	1153.24146	12.31906	772.15533	1199.24744	-10.10574	698.86334	1178.79224	205.65289	909.91901	850.15356	218.11205	924.40747	1085.33911	46.7406	930.89703	907.41516	54.08554	944.62122	1054.19702	117.45743	609.66016	797.74939	89.4782	431.75452	814.50983	-75.52408	314.01529	822.1521	-227.65025	173.87004	865.4104	-270.89987	193.61275	905.21289	-190.05014	31.97217	906.71954	240.53288	635.3576	1131.14905	317.56982	476.83728	1082.18091	300.39783	281.58386	1086.84412	286.41983	67.54798	1037.1134	238.97105	36.52703	987.82202	426.49783	32.89709	1018.26941	107.93781	1653.57263	962.83063	NaN	NaN	NaN	NaN	NaN	NaN	NaN	NaN	NaN	NaN	NaN	NaN	NaN	NaN	NaN	NaN	NaN	NaN	NaN	NaN	NaN
107	1.06	214.49358	1606.72656	917.75293	205.4373	1610.17444	1050.66931	94.87315	1544.08862	915.12769	90.82887	1547.42468	1045.71338	79.51015	1387.8678	972.02533	57.77151	1076.78552	967.18359	208.04579	1320.76868	977.14404	260.69116	1158.77588	968.35638	33.72945	1210.07764	1056.6582	164.81699	1359.32434	820.60699	190.42534	1172.44141	738.58716	230.75293	1059.87048	723.8139	327.89917	983.09344	741.96698	416.95688	920.14673	793.56561	403.29413	898.1037	744.35809	476.30692	866.85913	762.75116	152.09212	1337.68884	1135.85779	110.16183	1115.91223	1194.06604	97.06316	1001.84613	1197.11316	66.44297	867.65466	1193.41528	59.70317	767.53888	1154.62134	28.90745	773.55884	1200.7511	6.84806	700.1911	1180.17908	219.08377	911.03943	851.27563	231.69821	926.47369	1086.56238	59.93665	931.7121	908.40594	67.83205	946.09381	1054.99573	136.34119	608.79547	797.88007	114.41547	430.23688	813.87854	-51.0635	315.33667	821.01855	-206.90369	180.72287	864.42615	-248.71645	204.18263	903.83807	-177.96815	37.5633	903.34338	253.2421	637.42371	1132.76428	325.89142	476.37769	1083.26074	304.17587	281.17548	1087.64844	286.40338	67.62132	1037.06128	238.98029	36.63778	987.9184	426.54211	32.78948	1018.25043	121.32307	1655.13342	963.49475	NaN	NaN	NaN	NaN	NaN	NaN	NaN	NaN	NaN	NaN	NaN	NaN	NaN	NaN	NaN	NaN	NaN	NaN	NaN	NaN	NaN
108	1.07	227.76308	1608.29016	918.09308	218.88524	1611.77441	1050.9408	108.02975	1545.92358	915.60645	104.1514	1549.22095	1046.00525	92.35743	1389.35071	973.05792	71.13979	1078.44653	968.60016	221.1841	1322.37842	977.45038	273.68903	1160.33081	968.51294	47.42108	1211.91772	1058.03601	177.14441	1360.73828	821.22174	201.44685	1173.48645	739.49182	240.38271	1060.58508	725.05554	337.082	983.52399	743.26392	425.90417	920.41632	794.98859	412.24734	898.28558	745.86572	485.19711	867.08099	764.36676	165.90546	1339.61194	1136.17188	124.8859	1117.84351	1195.39063	112.26411	1003.74176	1198.70898	82.97973	869.25952	1195.12573	77.37186	768.92401	1156.74463	46.25118	774.80444	1202.31567	24.99231	701.16504	1181.78345	231.82068	912.11774	851.81213	245.21396	928.24792	1087.46423	72.70494	932.49426	909.59192	81.36444	947.63666	1056.00623	154.68832	608.31042	798.10626	139.67387	428.92841	813.4859	-25.59788	316.16223	819.54449	-185.82513	188.09622	864.73804	-226.9175	212.39651	905.24402	-160.2374	43.39162	898.72229	263.73529	638.64667	1133.85583	332.88266	475.53549	1084.38135	307.84271	280.79874	1088.06946	286.48685	67.6756	1036.97998	239.02708	36.8467	987.98474	426.61551	32.68474	1018.25732	134.90039	1657.01172	963.81494	NaN	NaN	NaN	NaN	NaN	NaN	NaN	NaN	NaN	NaN	NaN	NaN	NaN	NaN	NaN	NaN	NaN	NaN	NaN	NaN	NaN
109	1.08	240.99081	1609.98743	918.27466	232.24478	1613.53943	1051.15222	121.11092	1547.88818	915.93872	117.3454	1551.29407	1046.36853	105.37791	1391.03271	973.71198	84.34003	1080.151	969.92731	234.07893	1324.12842	977.58972	286.62918	1162.02197	968.38593	60.94938	1213.76318	1059.52576	189.08911	1362.2345	821.68341	212.20613	1174.58911	740.36353	249.93378	1061.19141	725.98285	346.0293	983.66235	744.44263	434.37021	920.22479	796.44586	420.81577	898.15393	747.22845	493.62354	866.62726	766.0235	179.78255	1341.5249	1136.64868	139.86545	1119.73962	1196.67139	127.78793	1005.60107	1200.41663	100.0293	870.77881	1196.95789	95.85833	770.32336	1158.50757	64.30466	775.9314	1204.10266	44.22126	702.07135	1183.80933	243.99536	913.53827	851.97913	258.66599	929.89557	1088.026	85.32099	933.36353	910.80768	94.79374	949.47345	1057.1676	172.68614	608.64209	798.34839	165.53157	428.36887	812.99585	0.21285	317.65103	818.9599	-163.31235	195.14653	865.58765	-204.72572	218.21599	907.69287	-137.95874	48.86046	893.32239	272.87616	638.96082	1134.41675	339.08881	474.54187	1085.33948	311.25751	280.37296	1088.11938	286.57755	67.76621	1036.86096	239.07658	37.08298	987.974	426.72018	32.61118	1018.21716	148.29729	1658.92432	964.01129	NaN	NaN	NaN	NaN	NaN	NaN	NaN	NaN	NaN	NaN	NaN	NaN	NaN	NaN	NaN	NaN	NaN	NaN	NaN	NaN	NaN
